<?xml version="1.0" encoding="UTF-8" standalone="no"?>
<!-- Created with Inkscape (http://www.inkscape.org/) -->

<svg
   width="21mm"
   height="5mm"
   viewBox="0 0 44.1 7.425"
   version="1.1"
   id="svg1"
   xml:space="preserve"
   inkscape:version="1.4.3 (0d15f75, 2025-12-25)"
   sodipodi:docname="logoFooter.svg"
   xmlns:inkscape="http://www.inkscape.org/namespaces/inkscape"
   xmlns:sodipodi="http://sodipodi.sourceforge.net/DTD/sodipodi-0.dtd"
   xmlns:xlink="http://www.w3.org/1999/xlink"
   xmlns="http://www.w3.org/2000/svg"
   xmlns:svg="http://www.w3.org/2000/svg"><sodipodi:namedview
     id="namedview1"
     pagecolor="#ffffff"
     bordercolor="#000000"
     borderopacity="0.25"
     inkscape:showpageshadow="2"
     inkscape:pageopacity="0.0"
     inkscape:pagecheckerboard="0"
     inkscape:deskcolor="#d1d1d1"
     inkscape:document-units="mm"
     inkscape:zoom="6.2082577"
     inkscape:cx="62.900095"
     inkscape:cy="33.825915"
     inkscape:window-width="1512"
     inkscape:window-height="949"
     inkscape:window-x="0"
     inkscape:window-y="33"
     inkscape:window-maximized="0"
     inkscape:current-layer="layer1" /><defs
     id="defs1"><linearGradient
       id="swatch17"
       inkscape:swatch="solid"><stop
         style="stop-color:#f2f2f2;stop-opacity:1;"
         offset="0"
         id="stop17" /></linearGradient></defs><g
     inkscape:label="Layer 1"
     inkscape:groupmode="layer"
     id="layer1"><g
       id="g2"
       transform="matrix(0.04785479,0,0,0.04937289,-16.696812,-0.84643747)"><g
         inkscape:label="Image"
         id="g1"><path
           style="fill:#ffffff;fill-opacity:1;stroke-width:0.971319"
           d="m 275.63893,1133.5271 c -20.70777,-4.7411 -29.98932,-20.3538 -25.50138,-42.8965 4.30974,-21.6476 19.80795,-36.6297 42.4464,-41.0329 8.55085,-1.6631 39.85562,-1.9696 48.22497,-0.4721 11.7364,2.0999 20.5492,7.7047 25.4765,16.2025 2.5085,4.3263 2.9621,6.2539 3.2898,13.981 1.1531,27.189 -15.69624,48.9998 -41.95818,54.3134 -8.62558,1.7452 -44.2243,1.6799 -51.97811,-0.095 z m 53.84213,-16.5997 c 12.8813,-4.4672 20.64248,-16.6274 20.74048,-32.4963 0.0415,-6.723 -0.26729,-8.0631 -2.63699,-11.4431 -1.68736,-2.4068 -4.47233,-4.6591 -7.5,-6.0654 -4.6043,-2.1388 -5.73991,-2.2371 -25.83701,-2.2371 h -21.02102 l -6.69338,3.1088 c -11.55929,5.3689 -16.5995,13.7202 -17.50834,29.0102 -0.43924,7.3895 -0.22661,9.0515 1.58721,12.4058 2.09497,3.8743 6.77449,7.3228 11.9206,8.7847 1.50478,0.4275 11.38158,0.8138 21.94845,0.8584 17.24436,0.073 19.80536,-0.1246 25,-1.926 z m -485.71249,15.8788 c 0,-0.673 2.91651,-16.7001 6.48112,-35.6157 3.56462,-18.9155 7.0158,-37.2794 7.66929,-40.8085 l 1.18816,-6.4166 40.58072,0.2882 c 39.422073,0.2799 40.740013,0.3489 46.160063,2.4144 7.60525,2.8983 13.25663,7.7188 16.60665,14.1653 2.581,4.9665 2.79948,6.2327 2.72267,15.7779 -0.0697,8.6581 -0.52796,11.6021 -2.76515,17.7633 -6.51494,17.9422 -18.89679,28.4602 -37.85136,32.1534 -10.34724,2.0162 -80.792163,2.2588 -80.792163,0.2783 z m 83.808223,-17.0915 c 12.05254,-5.2504 18.19178,-15.513 18.19178,-30.4101 0,-9.8708 -2.25792,-13.8193 -9.81334,-17.1607 l -5.68666,-2.515 h -27.42485 -27.424843 l -4.78424,25.0017 c -2.63133,13.751 -4.80265,25.7797 -4.82515,26.7305 -0.0389,1.6429 1.33879,1.7132 27.70908,1.4152 l 27.750003,-0.3136 z m 36.81546,11.071 c 0.73437,-3.9843 1.68221,-7.4869 2.10632,-7.7836 0.42411,-0.2967 19.65638,-12.427 42.7383902,-26.9563 l 41.9672898,-26.4169 -37.21784,-0.2473 c -28.81161,-0.1915 -37.20396,-0.5111 -37.15639,-1.4152 0.0338,-0.6423 0.60648,-4.1397 1.27262,-7.7721 l 1.21116,-6.6042 53.22738,-0.2441 c 42.27575,-0.1939 53.2147,2e-4 53.16573,0.9434 -0.0339,0.6532 -0.61511,3.9254 -1.29154,7.2715 l -1.22988,6.0839 -27.95846,17.7482 c -15.37715,9.7615 -34.8646,22.0955 -43.30544,27.4089 l -15.3469698,9.6608 39.1606598,0.2469 c 36.65392,0.2311 39.12815,0.3518 38.65273,1.8869 -0.44493,1.4366 -2.61944,12.3404 -2.61944,13.1349 0,0.1641 -24.4601,0.2984 -54.35577,0.2984 h -54.35577 z m 118.37632,5.9443 c 0,-1.1583 4.43923,-25.0813 12.71404,-68.5163 l 2.78596,-14.6236 9.778227,-0.2703 c 9.73034,-0.2691 9.77573,-0.2598 9.26947,1.8869 -0.27982,1.1865 -1.84041,9.3747 -3.46799,18.1961 -1.62758,8.8213 -5.01134,26.562 -7.51947,39.4237 -2.50813,12.8617 -4.56024,23.794 -4.56024,24.2941 0,0.5195 -4.071797,0.9092 -9.499997,0.9092 -7.40313,0 -9.5,-0.2869 -9.5,-1.2998 z m 40.515537,-40.92 8.16339,-42.2199 8.41054,-0.2396 8.41053,-0.2397 33.5,31.1055 c 18.425,17.108 33.72736,31.1201 34.00525,31.138 0.27789,0.018 3.1801,-13.9779 6.44936,-31.1017 l 5.94411,-31.1342 h 8.92981 8.9298 l -0.67507,5.4249 c -0.37129,2.9837 -3.92474,21.9826 -7.89656,42.2198 l -7.22149,36.795 -8.93519,0.2754 -8.93519,0.2754 -33.25231,-31.3618 c -21.52062,-20.2971 -33.41637,-30.8793 -33.7173,-29.9944 -0.25575,0.7521 -2.78994,13.8918 -5.63155,29.1995 -2.84161,15.3076 -5.40144,28.7873 -5.68852,29.9548 -0.49478,2.0122 -1.00197,2.1228 -9.73748,2.1228 h -9.21552 z m 532.8548,35.269 c -9.2126,-2.8425 -12.3544,-6.8811 -12.3638,-15.8927 -0.012,-11.8097 5.7028,-20.815 15.9934,-25.2006 3.8275,-1.6313 6.5978,-1.9209 18.5381,-1.9386 12.5972,-0.019 14.4953,0.1972 18.4919,2.1021 6.4605,3.0792 8.97,7.1335 8.97,14.4919 0,11.6334 -5.8735,20.5426 -16.5,25.028 -4.0945,1.7283 -7.1732,2.1624 -17,2.3973 -8.1308,0.1943 -13.3315,-0.1241 -16.1296,-0.9874 z m 31.9828,-9.4005 c 4.6591,-2.4562 7.6149,-7.5095 8.3562,-14.2858 0.4923,-4.5005 0.2778,-5.1984 -2.501,-8.1349 l -3.0395,-3.212 -12.4692,-0.3105 c -11.0719,-0.2757 -12.9289,-0.089 -16.571,1.6638 -9.1436,4.4009 -12.2712,20.7992 -4.7415,24.86 2.5025,1.3496 16.2245,2.4909 22.6128,1.8806 2.475,-0.2364 6.2339,-1.3439 8.3532,-2.4612 z m -288.27799,5.7374 c 0.458,-2.2054 2.2134,-11.0149 3.901,-19.5768 1.6876,-8.5619 3.2919,-16.5224 3.5651,-17.6899 0.4953,-2.1162 0.5593,-2.1228 20.72779,-2.1175 22.03528,0.01 26.58378,0.6799 29.68538,4.4 4.2912,5.1469 1.517,14.7199 -5.5586,19.1812 -3.571,2.2516 -4.5836,2.3801 -22.31188,2.8304 l -18.5712,0.4717 -1.4452,8.2553 -1.44519,8.2553 h -4.69 -4.6899 z m 48.00167,-22.3346 c 3.1103,-2.9345 3.5549,-4.7436 1.8879,-7.6823 -0.9605,-1.6933 -2.2494,-1.8249 -17.8722,-1.8249 h -16.83698 l -0.6756,4.0097 c -0.3716,2.2053 -0.9279,4.965 -1.2362,6.1325 l -0.5606,2.1228 h 16.1853 16.18528 z m 12.4369,24.2215 c 0.3036,-1.1675 2.2516,-10.8262 4.329,-21.4637 l 3.777,-19.341 26.71331,-0.2513 26.71321,-0.2513 -0.6067,2.61 c -0.3336,1.4355 -0.7799,3.1406 -0.9917,3.7893 -0.2928,0.8966 -5.6482,1.1793 -22.34021,1.1793 H 475.921 l -0.8366,4.9532 -0.83671,4.9531 15.76041,0.2593 15.7604,0.2592 v 2.2581 c 0,5.3131 -0.059,5.3324 -15.8738,5.2394 -8.0444,-0.047 -15.15141,-0.066 -15.79331,-0.041 -1.3607,0.052 -3.6615,9.158 -2.6891,10.6424 0.4505,0.6876 7.24731,0.8357 21.50741,0.4685 22.76271,-0.586 21.79491,-0.8128 20.21851,4.7368 l -0.603,2.1228 H 486.1328 459.73039 Z m 81.48622,1.7389 c 0,-0.5696 5.9316,-30.8734 6.5268,-33.3448 0.5076,-2.1074 0.4271,-2.1228 -11.1244,-2.1228 -11.5786,0 -11.6327,-0.011 -11.0327,-2.1228 0.3317,-1.1675 0.6091,-2.8657 0.6166,-3.7738 0.013,-1.5323 2.001,-1.6511 27.6387,-1.6511 h 27.625 l -0.625,2.9483 c -0.3437,1.6216 -0.625,3.3198 -0.625,3.7739 0,0.454 -5.1447,0.8255 -11.4326,0.8255 -10.019,0 -11.4984,0.2042 -11.9644,1.6511 -0.2924,0.908 -1.4566,6.7457 -2.587,12.9725 -1.1304,6.2269 -2.5283,13.5505 -3.1065,16.2747 l -1.0513,4.9532 h -4.4291 c -2.436,0 -4.4291,-0.1727 -4.4291,-0.3839 z m 38.6633,-2.6823 c 0.2957,-1.6865 2.1855,-11.3452 4.1995,-21.4638 l 3.6619,-18.3975 21.2223,-0.2545 c 24.4492,-0.2933 27.3181,0.2716 29.7964,5.8679 1.1688,2.639 1.2529,4.2472 0.4087,7.8175 -1.7859,7.5538 -8.5975,12.4928 -17.2518,12.509 -3.6684,0.01 -3.0747,0.9512 6.2293,9.9074 l 7.3551,7.0802 h -6.1934 -6.1935 l -4.8001,-4.9532 c -2.64,-2.7242 -6.2636,-6.5452 -8.0525,-8.4911 -3.2456,-3.5306 -3.2689,-3.538 -11.1488,-3.538 -4.343,0 -7.8998,0.3184 -7.904,0.7076 -0.015,1.3887 -2.0779,13.0028 -2.5977,14.6236 -0.399,1.2444 -1.6059,1.6511 -4.8992,1.6511 h -4.3698 z m 47.7018,-22.4757 c 2.8681,-2.1285 3.6443,-7.093 1.4349,-9.1775 -0.8347,-0.7874 -6.1371,-1.1321 -17.4171,-1.1321 h -16.2172 l -1.0828,4.7637 c -1.8361,8.0772 -2.9709,7.5013 14.7822,7.5013 14.5362,0 16.0859,-0.1638 18.5,-1.9554 z m 80.94,23.4191 c 0.287,-1.1675 2.2217,-10.9323 4.2993,-21.6996 l 3.7774,-19.5768 h 4.3091 c 5.3285,0 5.2833,-0.6648 1.3051,19.2248 -1.6478,8.2385 -2.996,15.3498 -2.996,15.8029 0,0.4531 9.0525,0.8238 20.1166,0.8238 h 20.1167 l -0.603,2.1228 c -0.3317,1.1675 -0.6091,2.8658 -0.6166,3.7738 -0.013,1.5283 -1.8812,1.6511 -25.1221,1.6511 h -25.1084 z"
           id="path1" /><path
           style="fill:#f5c80e;fill-opacity:1"
           d="M 120.85091,977.98977 C 43.256608,1013.724 43.052418,1013.5198 43.052418,1013.5198 l -16.94823,-27.7706 2.24615,53.7034 z"
           id="path3" /><use
           x="0"
           y="0"
           xlink:href="#path1"
           id="use3"
           transform="translate(508.96867,-939.13737)"
           style="opacity:1;fill:#ffffff;fill-opacity:1;stroke:#ffffff;stroke-width:1.00197;stroke-dasharray:none;stroke-opacity:1" /><use
           x="0"
           y="0"
           xlink:href="#path3"
           id="use4"
           transform="translate(514.38936,-936.2578)" /></g><g
         id="layer1-8"
         inkscape:label="Image 1" /></g><circle
       id="path2"
       style="display:inline;opacity:1;mix-blend-mode:darken;fill:#000000;stroke:#000000;stroke-width:0.264583"
       cx="52.364784"
       cy="104.72957"
       r="0.024134735" /><circle
       id="path4"
       style="display:inline;fill:#000000;stroke:#000000;stroke-width:0.264583"
       cx="52.364784"
       cy="104.72957"
       r="0.024134735" /></g></svg>
