<?xml version="1.0" encoding="UTF-8" standalone="no"?>
<!-- Created with Inkscape (http://www.inkscape.org/) -->

<svg
   version="1.1"
   id="svg1"
   width="70"
   height="12"
   viewBox="0 0 70 12"
   sodipodi:docname="logoDzino.svg"
   inkscape:version="1.4.3 (0d15f75, 2025-12-25)"
   xmlns:inkscape="http://www.inkscape.org/namespaces/inkscape"
   xmlns:sodipodi="http://sodipodi.sourceforge.net/DTD/sodipodi-0.dtd"
   xmlns:xlink="http://www.w3.org/1999/xlink"
   xmlns="http://www.w3.org/2000/svg"
   xmlns:svg="http://www.w3.org/2000/svg">
  <defs
     id="defs1" />
  <sodipodi:namedview
     id="namedview1"
     pagecolor="#ffffff"
     bordercolor="#000000"
     borderopacity="0.25"
     inkscape:showpageshadow="2"
     inkscape:pageopacity="0.0"
     inkscape:pagecheckerboard="0"
     inkscape:deskcolor="#d1d1d1"
     inkscape:zoom="9.7379538"
     inkscape:cx="37.841625"
     inkscape:cy="14.68481"
     inkscape:window-width="1512"
     inkscape:window-height="949"
     inkscape:window-x="0"
     inkscape:window-y="33"
     inkscape:window-maximized="0"
     inkscape:current-layer="g1" />
  <g
     inkscape:groupmode="layer"
     inkscape:label="Image"
     id="g1">
    <path
       style="fill:#04498a;fill-opacity:1;stroke-width:0.971034"
       d="m 604.45336,759.82326 c -20.70777,-4.73833 -29.98932,-20.34188 -25.50138,-42.8713 4.30974,-21.6349 19.80795,-36.6082 42.4464,-41.00877 8.55085,-1.66216 39.85562,-1.96848 48.22497,-0.47188 11.7364,2.09868 20.5492,7.70013 25.4765,16.193 2.5085,4.32369 2.9621,6.25021 3.2898,13.97277 1.1531,27.17302 -15.69624,48.97104 -41.95818,54.28149 -8.62558,1.74419 -44.2243,1.6789 -51.97811,-0.0954 z m 53.84213,-16.59001 c 12.8813,-4.46454 20.64248,-16.61765 20.74048,-32.47721 0.0415,-6.71907 -0.26729,-8.05838 -2.63699,-11.43638 -1.68736,-2.40534 -4.47233,-4.65628 -7.5,-6.06184 -4.6043,-2.13751 -5.73991,-2.23578 -25.83701,-2.23578 h -21.02102 l -6.69338,3.10701 c -11.55929,5.36573 -16.5995,13.71212 -17.50834,28.99318 -0.43924,7.38513 -0.22661,9.0461 1.58721,12.39848 2.09497,3.87204 6.77449,7.31852 11.9206,8.77957 1.50478,0.42722 11.38158,0.81324 21.94845,0.85783 17.24436,0.0728 19.80536,-0.12446 25,-1.92486 z M 172.583,759.10273 c 0,-0.6726 2.91651,-16.69023 6.48112,-35.59471 3.56462,-18.90448 7.0158,-37.25754 7.66929,-40.7846 l 1.18816,-6.41281 40.58072,0.28801 c 39.42207,0.27979 40.74001,0.34869 46.16006,2.41301 7.60525,2.89659 13.25663,7.71431 16.60665,14.15694 2.581,4.96365 2.79948,6.22905 2.72267,15.76869 -0.0697,8.65295 -0.52796,11.59525 -2.76515,17.75287 -6.51494,17.93166 -18.89679,28.44342 -37.85136,32.13452 -10.34724,2.01497 -80.79216,2.25742 -80.79216,0.27808 z m 83.80822,-17.08144 c 12.05254,-5.24727 18.19178,-15.50384 18.19178,-30.3922 0,-9.86505 -2.25792,-13.81118 -9.81334,-17.15066 l -5.68666,-2.51347 h -27.42485 -27.42484 l -4.78424,24.987 c -2.63133,13.74285 -4.80265,25.76453 -4.82515,26.7148 -0.0389,1.64189 1.33879,1.71219 27.70908,1.41436 l 27.75,-0.31342 z m 36.81546,11.06444 c 0.73437,-3.98193 1.68221,-7.48247 2.10632,-7.77896 0.42411,-0.2965 19.65638,-12.4197 42.73839,-26.94045 l 41.96729,-26.40136 -37.21784,-0.24721 c -28.81161,-0.19137 -37.20396,-0.51083 -37.15639,-1.41436 0.0338,-0.64194 0.60648,-4.13731 1.27262,-7.76749 l 1.21116,-6.60035 53.22738,-0.24399 c 42.27575,-0.1938 53.2147,2.1e-4 53.16573,0.94291 -0.0339,0.65278 -0.61511,3.92303 -1.29154,7.2672 l -1.22988,6.08031 -27.95846,17.73773 c -15.37715,9.75576 -34.8646,22.08255 -43.30544,27.39285 l -15.34697,9.65514 39.16066,0.24671 c 36.65392,0.23095 39.12815,0.35164 38.65273,1.88582 -0.44493,1.43577 -2.61944,12.33318 -2.61944,13.12712 0,0.16407 -24.4601,0.29829 -54.35577,0.29829 h -54.35577 z m 118.37632,5.94082 c 0,-1.15755 4.43923,-25.06656 12.71405,-68.47595 l 2.78595,-14.61505 9.77823,-0.27018 c 9.73034,-0.26888 9.77573,-0.25965 9.26947,1.88579 -0.27982,1.1858 -1.84041,9.36925 -3.46799,18.18541 -1.62758,8.81618 -5.01134,26.54641 -7.51947,39.40055 -2.50813,12.85412 -4.56024,23.78004 -4.56024,24.27984 0,0.51919 -4.0718,0.90868 -9.5,0.90868 -7.40313,0 -9.5,-0.28675 -9.5,-1.29909 z m 40.51554,-40.89595 8.16339,-42.19505 8.41054,-0.2395 8.41053,-0.23949 33.5,31.08718 c 18.425,17.09794 33.72736,31.1018 34.00525,31.11966 0.27789,0.018 3.1801,-13.96966 6.44936,-31.08341 l 5.94411,-31.1159 h 8.92981 8.9298 l -0.67507,5.42171 c -0.37129,2.98194 -3.92474,21.96972 -7.89656,42.19506 l -7.22149,36.77333 -8.93519,0.27521 -8.93519,0.27524 -33.25231,-31.34334 c -21.52062,-20.28514 -33.41637,-30.8612 -33.7173,-29.97676 -0.25575,0.75162 -2.78994,13.88364 -5.63155,29.18229 -2.84161,15.29866 -5.40144,28.77043 -5.68852,29.93727 -0.49478,2.01102 -1.00197,2.12154 -9.73748,2.12154 h -9.21552 z m 532.85479,35.24831 c -9.21257,-2.84086 -12.35439,-6.87705 -12.36384,-15.88337 -0.0121,-11.8028 5.70287,-20.80272 15.99344,-25.18581 3.8275,-1.63027 6.5978,-1.91979 18.53807,-1.9374 12.5972,-0.0186 14.4954,0.19705 18.4919,2.10082 6.4605,3.07742 8.97,7.12931 8.97,14.48339 0,11.62652 -5.8735,20.53056 -16.5,25.01331 -4.0945,1.72724 -7.1732,2.16114 -17,2.39585 -8.13077,0.19421 -13.33147,-0.12397 -16.12957,-0.98679 z m 31.98277,-9.39496 c 4.6591,-2.45477 7.6149,-7.50508 8.3562,-14.27739 0.4923,-4.4979 0.2778,-5.19537 -2.501,-8.13011 l -3.0395,-3.21013 -12.4692,-0.31031 c -11.07187,-0.27555 -12.92887,-0.0893 -16.57097,1.66277 -9.1436,4.39837 -12.27117,20.78701 -4.7415,24.84543 2.5025,1.34883 16.22447,2.48938 22.61277,1.87952 2.475,-0.23627 6.2339,-1.34317 8.3532,-2.45978 z m -288.27795,5.73399 c 0.458,-2.20404 2.2134,-11.00842 3.901,-19.56529 1.6876,-8.55688 3.2919,-16.51265 3.5651,-17.6795 0.4953,-2.11498 0.5593,-2.12152 20.72779,-2.11627 22.03528,0.005 26.58378,0.67952 29.68538,4.39746 4.2912,5.14386 1.517,14.71121 -5.5586,19.16993 -3.571,2.25029 -4.5836,2.37866 -22.31188,2.82872 l -18.5712,0.47145 -1.4452,8.25043 -1.44519,8.25043 h -4.69 -4.6899 z m 48.00167,-22.32148 c 3.1103,-2.93274 3.5549,-4.74079 1.8879,-7.67777 -0.9605,-1.6923 -2.2494,-1.82383 -17.8722,-1.82383 h -16.83698 l -0.6756,4.00735 c -0.3716,2.20404 -0.9279,4.96205 -1.2362,6.12889 l -0.5606,2.12155 h 16.1853 16.18528 z m 12.4369,24.20729 c 0.3036,-1.16683 2.2516,-10.81984 4.329,-21.4511 l 3.777,-19.32957 26.71331,-0.25117 26.71321,-0.25117 -0.6067,2.60843 c -0.3336,1.43463 -0.7799,3.13882 -0.9917,3.78707 -0.2928,0.89609 -5.6482,1.17862 -22.34021,1.17862 h -21.9552 l -0.8366,4.95027 -0.83671,4.95025 15.76041,0.25909 15.7604,0.25907 v 2.25679 c 0,5.30994 -0.059,5.3293 -15.8738,5.23631 -8.0444,-0.0472 -15.15141,-0.0659 -15.79332,-0.0412 -1.36069,0.0521 -3.66149,9.15257 -2.68909,10.63612 0.4505,0.68721 7.24731,0.83518 21.50741,0.46827 22.76271,-0.58571 21.79491,-0.81231 20.21851,4.73399 l -0.603,2.12155 h -26.40241 -26.40241 z m 81.48622,1.73791 c 0,-0.56929 5.9316,-30.85526 6.5268,-33.32525 0.5076,-2.10618 0.4271,-2.12155 -11.12439,-2.12155 -11.57861,0 -11.63271,-0.0106 -11.03271,-2.12154 0.3317,-1.16684 0.6091,-2.86406 0.6166,-3.77162 0.013,-1.53136 2.001,-1.65008 27.6387,-1.65008 h 27.625 l -0.625,2.94658 c -0.3437,1.62063 -0.625,3.31785 -0.625,3.77163 0,0.45377 -5.1447,0.82503 -11.4326,0.82503 -10.019,0 -11.4984,0.20404 -11.9644,1.6501 -0.2924,0.90753 -1.4566,6.74178 -2.587,12.96495 -1.1304,6.22318 -2.5283,13.54249 -3.1065,16.26513 l -1.0513,4.95026 h -4.4291 c -2.436,0 -4.4291,-0.17264 -4.4291,-0.38364 z m 38.6633,-2.6808 c 0.2957,-1.68544 2.1855,-11.33845 4.1995,-21.45112 l 3.6619,-18.38666 21.2223,-0.25445 c 24.44918,-0.29312 27.31808,0.27151 29.79637,5.86446 1.16881,2.63749 1.25291,4.24476 0.40871,7.81291 -1.7859,7.54935 -8.5975,12.48547 -17.25178,12.50173 -3.6684,0.006 -3.0747,0.95056 6.2293,9.90154 l 7.35508,7.07603 h -6.19338 -6.1935 l -4.8001,-4.95026 c -2.64,-2.72264 -6.2636,-6.54141 -8.0525,-8.48616 -3.2456,-3.52849 -3.2689,-3.53589 -11.1488,-3.53589 -4.343,0 -7.8998,0.31823 -7.904,0.70717 -0.015,1.38786 -2.0779,12.99518 -2.5977,14.61505 -0.399,1.24361 -1.6059,1.65009 -4.8992,1.65009 h -4.3698 z m 47.7018,-22.46247 c 2.86808,-2.12721 3.64428,-7.08878 1.4349,-9.17204 -0.8347,-0.78701 -6.1371,-1.13149 -17.4171,-1.13149 h -16.2172 l -1.08281,4.76094 c -1.83609,8.07238 -2.97089,7.49685 14.78221,7.49685 14.5362,0 16.0859,-0.16372 18.5,-1.95426 z m 80.93996,23.40536 c 0.287,-1.16683 2.2217,-10.92591 4.2993,-21.68683 l 3.7774,-19.5653 h 4.3091 c 5.3285,0 5.2833,-0.66443 1.3051,19.21345 -1.6478,8.2337 -2.996,15.34086 -2.996,15.79367 0,0.45283 9.0525,0.8233 20.1166,0.8233 h 20.1167 l -0.603,2.12154 c -0.3317,1.16686 -0.6091,2.86408 -0.6166,3.77163 -0.013,1.52736 -1.8812,1.65009 -25.1221,1.65009 h -25.1084 z"
       id="path1" />
    <path
       style="fill:#f5c80e;fill-opacity:1;stroke-width:0.999706"
       d="m 438.16229,608.5304 c -77.5943,35.71322 -77.79849,35.50914 -77.79849,35.50914 l -16.94823,-27.75427 2.24615,53.67187 z"
       id="path3" />
    <use
       x="0"
       y="0"
       xlink:href="#path1"
       id="use3"
       transform="matrix(0.07584216,0,0,0.07370447,-12.725639,-44.771509)" />
    <use
       x="0"
       y="0"
       xlink:href="#path3"
       id="use4"
       transform="matrix(0.08041884,0,0,0.07567414,-12.905388,-46.008223)" />
  </g>
  <g
     inkscape:groupmode="layer"
     id="layer1"
     inkscape:label="Image 1" />
</svg>
