<?xml version="1.0" encoding="UTF-8" standalone="no"?>
<!-- Created with Inkscape (http://www.inkscape.org/) -->

<svg
   version="1.1"
   id="svg1"
   width="2048"
   height="512"
   viewBox="0 0 2048 512"
   sodipodi:docname="logoDzino.svg"
   inkscape:version="1.4.2 (f4327f4, 2025-05-13)"
   xmlns:inkscape="http://www.inkscape.org/namespaces/inkscape"
   xmlns:sodipodi="http://sodipodi.sourceforge.net/DTD/sodipodi-0.dtd"
   xmlns:xlink="http://www.w3.org/1999/xlink"
   xmlns="http://www.w3.org/2000/svg"
   xmlns:svg="http://www.w3.org/2000/svg">
  <defs
     id="defs1" />
  <sodipodi:namedview
     id="namedview1"
     pagecolor="#ffffff"
     bordercolor="#000000"
     borderopacity="0.25"
     inkscape:showpageshadow="2"
     inkscape:pageopacity="0.0"
     inkscape:pagecheckerboard="0"
     inkscape:deskcolor="#d1d1d1"
     inkscape:zoom="0.61215836"
     inkscape:cx="359.38413"
     inkscape:cy="285.05696"
     inkscape:window-width="1920"
     inkscape:window-height="991"
     inkscape:window-x="-9"
     inkscape:window-y="-9"
     inkscape:window-maximized="1"
     inkscape:current-layer="g1" />
  <g
     inkscape:groupmode="layer"
     inkscape:label="Image"
     id="g1">
    <path
       style="fill:#04498a;fill-opacity:1;stroke-width:0.971319"
       d="m 655.23942,812.51007 c -20.70777,-4.74112 -29.98932,-20.35384 -25.50138,-42.89651 4.30974,-21.64762 19.80795,-36.62973 42.4464,-41.03289 8.55085,-1.66313 39.85562,-1.96963 48.22497,-0.47215 11.7364,2.09991 20.5492,7.70466 25.4765,16.20252 2.5085,4.32624 2.9621,6.25389 3.2898,13.98099 1.1531,27.18899 -15.69624,48.99983 -41.95818,54.3134 -8.62558,1.74521 -44.2243,1.67989 -51.97811,-0.0954 z m 53.84213,-16.59977 c 12.8813,-4.46716 20.64248,-16.62742 20.74048,-32.49631 0.0415,-6.72301 -0.26729,-8.06311 -2.63699,-11.4431 -1.68736,-2.40675 -4.47233,-4.65902 -7.5,-6.06541 -4.6043,-2.13876 -5.73991,-2.23708 -25.83701,-2.23708 h -21.02102 l -6.69338,3.10883 c -11.55929,5.36888 -16.5995,13.72018 -17.50834,29.01022 -0.43924,7.38948 -0.22661,9.05143 1.58721,12.40578 2.09497,3.87432 6.77449,7.32282 11.9206,8.78473 1.50478,0.42747 11.38158,0.81372 21.94845,0.85833 17.24436,0.0728 19.80536,-0.12453 25,-1.92599 z m -485.71249,15.87881 c 0,-0.673 2.91651,-16.70004 6.48112,-35.61564 3.56462,-18.91559 7.0158,-37.27945 7.66929,-40.80858 l 1.18816,-6.41658 40.58072,0.28819 c 39.42207,0.27995 40.74001,0.34889 46.16006,2.41442 7.60525,2.89829 13.25663,7.71884 16.60665,14.16526 2.581,4.96657 2.79948,6.23272 2.72267,15.77797 -0.0697,8.65803 -0.52796,11.60207 -2.76515,17.76331 -6.51494,17.94219 -18.89679,28.46014 -37.85136,32.15341 -10.34724,2.01615 -80.79216,2.25875 -80.79216,0.27824 z m 83.80822,-17.09148 c 12.05254,-5.25036 18.19178,-15.51296 18.19178,-30.41007 0,-9.87085 -2.25792,-13.8193 -9.81334,-17.16074 l -5.68666,-2.51496 h -27.42485 -27.42484 l -4.78424,25.0017 c -2.63133,13.75093 -4.80265,25.77967 -4.82515,26.73051 -0.0389,1.64285 1.33879,1.7132 27.70908,1.41519 l 27.75,-0.31361 z m 36.81546,11.07095 c 0.73437,-3.98428 1.68221,-7.48687 2.10632,-7.78354 0.42411,-0.29667 19.65638,-12.427 42.73839,-26.95629 l 41.96729,-26.41689 -37.21784,-0.24735 c -28.81161,-0.19148 -37.20396,-0.51113 -37.15639,-1.41519 0.0338,-0.64231 0.60648,-4.13974 1.27262,-7.77206 l 1.21116,-6.60423 53.22738,-0.24413 c 42.27575,-0.19391 53.2147,2.1e-4 53.16573,0.94346 -0.0339,0.65317 -0.61511,3.92534 -1.29154,7.27148 l -1.22988,6.08388 -27.95846,17.74816 c -15.37715,9.7615 -34.8646,22.09553 -43.30544,27.40896 l -15.34697,9.66081 39.16066,0.24686 c 36.65392,0.23108 39.12815,0.35185 38.65273,1.88692 -0.44493,1.43662 -2.61944,12.34044 -2.61944,13.13485 0,0.16416 -24.4601,0.29846 -54.35577,0.29846 h -54.35577 z m 118.37632,5.94431 c 0,-1.15823 4.43923,-25.0813 12.71404,-68.51622 l 2.78596,-14.62364 9.77823,-0.27034 c 9.73034,-0.26903 9.77573,-0.2598 9.26947,1.88691 -0.27982,1.18649 -1.84041,9.37475 -3.46799,18.1961 -1.62758,8.82136 -5.01134,26.56202 -7.51947,39.42371 -2.50813,12.86168 -4.56024,23.79403 -4.56024,24.29411 0,0.51951 -4.0718,0.90922 -9.5,0.90922 -7.40313,0 -9.5,-0.28691 -9.5,-1.29985 z m 40.51554,-40.92 8.16339,-42.21986 8.41054,-0.23964 8.41053,-0.23963 33.5,31.10546 c 18.425,17.108 33.72736,31.12009 34.00525,31.13796 0.27789,0.018 3.1801,-13.97788 6.44936,-31.10169 l 5.94411,-31.13419 h 8.92981 8.9298 l -0.67507,5.4249 c -0.37129,2.98369 -3.92474,21.98263 -7.89656,42.21986 l -7.22149,36.79495 -8.93519,0.27538 -8.93519,0.27539 -33.25231,-31.36176 c -21.52062,-20.29707 -33.41637,-30.87934 -33.7173,-29.99439 -0.25575,0.75206 -2.78994,13.89181 -5.63155,29.19945 -2.84161,15.30765 -5.40144,28.78734 -5.68852,29.95487 -0.49478,2.01221 -1.00197,2.12279 -9.73748,2.12279 h -9.21552 z m 532.8548,35.26904 c -9.2126,-2.84253 -12.3544,-6.88109 -12.3638,-15.89271 -0.012,-11.80974 5.7028,-20.81495 15.9934,-25.20062 3.8275,-1.63123 6.5978,-1.92092 18.5381,-1.93854 12.5972,-0.0186 14.4953,0.19717 18.4919,2.10206 6.4605,3.07922 8.97,7.1335 8.97,14.4919 0,11.63336 -5.8735,20.54264 -16.5,25.02802 -4.0945,1.72825 -7.1732,2.16241 -17,2.39726 -8.1308,0.19432 -13.3315,-0.12404 -16.1296,-0.98737 z m 31.9828,-9.40048 c 4.6591,-2.45622 7.6149,-7.5095 8.3562,-14.28579 0.4923,-4.50055 0.2778,-5.19843 -2.501,-8.13489 l -3.0395,-3.21202 -12.4692,-0.3105 c -11.0719,-0.2757 -12.9289,-0.0893 -16.571,1.66376 -9.1436,4.40095 -12.2712,20.79922 -4.7415,24.86003 2.5025,1.34962 16.2245,2.49085 22.6128,1.88063 2.475,-0.23641 6.2339,-1.34396 8.3532,-2.46122 z m -288.27799,5.73736 c 0.458,-2.20534 2.2134,-11.0149 3.901,-19.5768 1.6876,-8.56191 3.2919,-16.52236 3.5651,-17.68989 0.4953,-2.11623 0.5593,-2.12277 20.72779,-2.11752 22.03528,0.005 26.58378,0.67992 29.68538,4.40004 4.2912,5.14689 1.517,14.71987 -5.5586,19.18121 -3.571,2.25161 -4.5836,2.38006 -22.31188,2.83038 l -18.5712,0.47173 -1.4452,8.25528 -1.44519,8.25528 h -4.69 -4.6899 z m 48.00167,-22.33461 c 3.1103,-2.93447 3.5549,-4.74357 1.8879,-7.68228 -0.9605,-1.6933 -2.2494,-1.8249 -17.8722,-1.8249 H 794.6246 l -0.6756,4.0097 c -0.3716,2.20534 -0.9279,4.96496 -1.2362,6.1325 l -0.5606,2.12279 h 16.1853 16.18528 z m 12.4369,24.22153 c 0.3036,-1.16753 2.2516,-10.82621 4.329,-21.46372 l 3.777,-19.34094 26.71331,-0.25132 26.71321,-0.25131 -0.6067,2.60996 c -0.3336,1.43548 -0.7799,3.14067 -0.9917,3.7893 -0.2928,0.89661 -5.6482,1.17932 -22.34021,1.17932 h -21.9552 l -0.8366,4.95317 -0.83671,4.95316 15.76041,0.25924 15.7604,0.25923 v 2.25812 c 0,5.31306 -0.059,5.33243 -15.8738,5.23939 -8.0444,-0.0473 -15.15141,-0.0659 -15.79331,-0.0413 -1.3607,0.0522 -3.6615,9.15795 -2.6891,10.64237 0.4505,0.68762 7.24731,0.83568 21.50741,0.46855 22.76271,-0.58605 21.79491,-0.81279 20.21851,4.73678 l -0.603,2.12279 h -26.40241 -26.40241 z m 81.48622,1.73892 c 0,-0.56962 5.9316,-30.87339 6.5268,-33.34484 0.5076,-2.10742 0.4271,-2.12279 -11.1244,-2.12279 -11.5786,0 -11.6327,-0.0106 -11.0327,-2.12279 0.3317,-1.16753 0.6091,-2.86575 0.6166,-3.77384 0.013,-1.53227 2.001,-1.65105 27.6387,-1.65105 h 27.625 l -0.625,2.94831 c -0.3437,1.62158 -0.625,3.3198 -0.625,3.77385 0,0.45403 -5.1447,0.82552 -11.4326,0.82552 -10.019,0 -11.4984,0.20416 -11.9644,1.65106 -0.2924,0.90807 -1.4566,6.74574 -2.587,12.97258 -1.1304,6.22684 -2.5283,13.55045 -3.1065,16.27469 l -1.0513,4.95317 h -4.4291 c -2.436,0 -4.4291,-0.17274 -4.4291,-0.38387 z m 38.6633,-2.68237 c 0.2957,-1.68644 2.1855,-11.34512 4.1995,-21.46373 l 3.6619,-18.39748 21.2223,-0.25459 c 24.4492,-0.29329 27.3181,0.27167 29.7964,5.8679 1.1688,2.63905 1.2529,4.24726 0.4087,7.8175 -1.7859,7.5538 -8.5975,12.49282 -17.2518,12.50909 -3.6684,0.006 -3.0747,0.95112 6.2293,9.90736 l 7.3551,7.08019 h -6.1934 -6.1935 l -4.8001,-4.95317 c -2.64,-2.72424 -6.2636,-6.54526 -8.0525,-8.49115 -3.2456,-3.53056 -3.2689,-3.53797 -11.1488,-3.53797 -4.343,0 -7.8998,0.31842 -7.904,0.70759 -0.015,1.38868 -2.0779,13.00282 -2.5977,14.62364 -0.399,1.24434 -1.6059,1.65106 -4.8992,1.65106 h -4.3698 z m 47.7018,-22.47568 c 2.8681,-2.12846 3.6443,-7.09295 1.4349,-9.17743 -0.8347,-0.78748 -6.1371,-1.13215 -17.4171,-1.13215 h -16.2172 l -1.0828,4.76374 c -1.8361,8.07712 -2.9709,7.50125 14.7822,7.50125 14.5362,0 16.0859,-0.16381 18.5,-1.95541 z m 80.94,23.41913 c 0.287,-1.16753 2.2217,-10.93234 4.2993,-21.69959 l 3.7774,-19.5768 h 4.3091 c 5.3285,0 5.2833,-0.66483 1.3051,19.22474 -1.6478,8.23855 -2.996,15.34988 -2.996,15.80296 0,0.45309 9.0525,0.82379 20.1166,0.82379 h 20.1167 l -0.603,2.12279 c -0.3317,1.16754 -0.6091,2.86576 -0.6166,3.77384 -0.013,1.52826 -1.8812,1.65106 -25.1221,1.65106 h -25.1084 z"
       id="path1" />
    <path
       style="fill:#f5c80e;fill-opacity:1"
       d="m 488.94835,661.12825 c -77.5943,35.73422 -77.79849,35.53002 -77.79849,35.53002 l -16.94823,-27.77059 2.24615,53.70342 z"
       id="path3" />
    <use
       x="0"
       y="0"
       xlink:href="#path1"
       id="use3"
       transform="translate(129.95628,-612.86203)" />
    <use
       x="0"
       y="0"
       xlink:href="#path3"
       id="use4"
       transform="translate(146.29192,-619.39628)" />
  </g>
  <g
     inkscape:groupmode="layer"
     id="layer1"
     inkscape:label="Image 1" />
</svg>
